<svg version="1.1" xmlns="http://www.w3.org/2000/svg" xmlns:xlink="http://www.w3.org/1999/xlink" width="48px" height="48px" viewBox="0,0,256,256"><g fill="#000000" fill-rule="nonzero" stroke="none" stroke-width="1" stroke-linecap="butt" stroke-linejoin="miter" stroke-miterlimit="10" stroke-dasharray="" stroke-dashoffset="0" font-family="none" font-weight="none" font-size="none" text-anchor="none" style="mix-blend-mode: normal"><g transform="scale(5.33333,5.33333)"><path d="M13.10156,4.02148c-1.14996,0 -2.20385,0.3844 -2.92969,1.13867c-0.72584,0.75427 -1.07812,1.81572 -1.07812,2.97656v33.03125c0,1.1659 0.36196,2.2272 1.08984,2.97852c0.72788,0.75132 1.77864,1.13477 2.91797,1.13477c1.12877,0 2.17451,-0.38439 2.9043,-1.13281c0.72979,-0.74842 1.10352,-1.81014 1.10352,-2.98047c0.00003,-0.00456 0.00003,-0.00911 0,-0.01367l-0.10937,-8.16797c-0.0036,-0.35814 -0.19845,-0.68702 -0.51083,-0.86222c-0.31239,-0.1752 -0.69461,-0.16998 -1.00209,0.0137c-0.30748,0.18368 -0.49326,0.51776 -0.48707,0.87587l0.10938,8.1543c0,0.76267 -0.21744,1.25816 -0.53516,1.58398c-0.31771,0.32583 -0.77543,0.5293 -1.47266,0.5293c-0.71467,0 -1.16785,-0.20466 -1.48047,-0.52734c-0.31262,-0.32268 -0.52734,-0.81783 -0.52734,-1.58594v-33.03125c0,-0.77216 0.21162,-1.26987 0.51953,-1.58984c0.30791,-0.31998 0.75725,-0.52539 1.48828,-0.52539h12.00391c3.79496,0 6.76432,1.09018 8.78711,2.94922c2.02278,1.85904 3.1582,4.50981 3.1582,7.89258c0,4.83057 -2.46054,8.56616 -6.71875,10.06836c-0.2792,0.09813 -0.5006,0.31488 -0.60464,0.59194c-0.10404,0.27705 -0.08003,0.58596 0.06557,0.84361l6.55469,11.57422c0.00193,0.00392 0.00388,0.00783 0.00586,0.01172c0.43454,0.74633 0.50781,1.05118 0.50781,1.56445c0,1.03013 -0.76712,1.76563 -2.06055,1.76563c-0.57681,0 -0.84761,-0.08131 -1.12305,-0.27344c-0.27543,-0.19213 -0.60313,-0.57811 -1.01172,-1.30859l-7.27344,-13.3125c-0.17551,-0.32032 -0.5117,-0.51949 -0.87695,-0.51953h-8.51562c-0.36064,-0.0051 -0.69608,0.18438 -0.87789,0.49587c-0.18181,0.3115 -0.18181,0.69676 0,1.00825c0.18181,0.3115 0.51725,0.50097 0.87789,0.49587h7.92188l6.99414,12.79883c0.00128,0.00326 0.00259,0.00652 0.00391,0.00977c0.47741,0.85352 0.95547,1.51379 1.61328,1.97266c0.65781,0.45887 1.44739,0.63281 2.26758,0.63281c2.19658,0 4.06055,-1.62775 4.06055,-3.76562c0,-0.82957 -0.24538,-1.65024 -0.7793,-2.56836v-0.00391l-6.05273,-10.68945c4.35975,-2.03402 7.02148,-6.27991 7.02148,-11.39258c0,-3.84124 -1.34947,-7.10877 -3.80469,-9.36523c-2.45522,-2.25646 -5.95959,-3.47656 -10.14062,-3.47656zM16.10938,9.07031c-0.55226,0.00006 -0.99994,0.44774 -1,1v13.9375c0.00006,0.55226 0.44774,0.99994 1,1h8.43164c2.50649,0 4.6166,-0.70121 6.08594,-2.10742c1.46934,-1.40621 2.2193,-3.45905 2.21875,-5.875c0,-2.37931 -0.80349,-4.42713 -2.30859,-5.83008c-1.5051,-1.40294 -3.64448,-2.125 -6.15625,-2.125zM17.10938,11.07031h7.27148c2.13424,0 3.72707,0.59434 4.79297,1.58789c1.0659,0.99355 1.67188,2.4225 1.67188,4.36719c0.00045,2.01605 -0.5804,3.4524 -1.60156,4.42969c-1.02116,0.97729 -2.56261,1.55273 -4.70312,1.55273h-7.43164z"></path></g></g></svg>